<svg width="58" height="58" viewBox="0 0 58 58" fill="none" xmlns="http://www.w3.org/2000/svg">
<circle cx="29.3337" cy="28.6667" r="28" fill="white" stroke="#FF0505" stroke-width="1.33333"/>
<path d="M17.3234 32.0828L27.6929 22.0343C27.9176 21.8121 28.1849 21.6358 28.4795 21.5155C28.774 21.3952 29.09 21.3333 29.409 21.3333C29.7281 21.3333 30.0441 21.3952 30.3386 21.5155C30.6332 21.6358 30.9005 21.8121 31.1252 22.0343L41.3739 32.0828C41.6004 32.3031 41.7803 32.5652 41.903 32.854C42.0257 33.1428 42.0889 33.4526 42.0889 33.7655C42.0889 34.0783 42.0257 34.3881 41.903 34.6769C41.7803 34.9657 41.6004 35.2278 41.3739 35.4481C40.921 35.8895 40.3084 36.1373 39.6698 36.1373C39.0312 36.1373 38.4186 35.8895 37.9657 35.4481L29.409 27.0585L20.8524 35.4481C20.4022 35.886 19.7945 36.1328 19.1604 36.1354C18.8423 36.1372 18.5269 36.0774 18.2324 35.9595C17.9379 35.8416 17.6701 35.6678 17.4442 35.4481C17.2096 35.2357 17.0202 34.9799 16.887 34.6953C16.7538 34.4107 16.6794 34.1031 16.6682 33.7902C16.6569 33.4773 16.709 33.1653 16.8215 32.8722C16.934 32.5792 17.1045 32.3109 17.3234 32.0828Z" fill="#FF0505"/>
</svg>
