<svg width="21" height="21" viewBox="0 0 21 21" fill="none" xmlns="http://www.w3.org/2000/svg">
<path fill-rule="evenodd" clip-rule="evenodd" d="M15.92 5.77232L17.164 17.6192C17.1784 17.7564 17.1339 17.8934 17.0414 17.9961C16.9491 18.0986 16.8175 18.1572 16.6794 18.1572H3.48717C3.34918 18.1572 3.21756 18.0986 3.12515 17.9961C3.03287 17.8934 2.98828 17.7564 3.00264 17.6192L4.24669 5.77232C4.27279 5.52431 4.48183 5.33599 4.73122 5.33599H7.06945V4.80289C7.06945 3.14112 8.42151 1.78906 10.0834 1.78906C11.7452 1.78906 13.0972 3.14112 13.0972 4.80289V5.33599H15.4354C15.6848 5.33599 15.8939 5.52431 15.92 5.77232ZM8.33542 4.80289C8.33542 3.83945 9.11981 3.05503 10.0834 3.05503C11.0468 3.05503 11.8312 3.83944 11.8312 4.80289V5.04433H8.33542V4.80289ZM15.8146 16.8912H4.35205L5.43256 6.60196H6.77778V7.38388C6.77778 7.81395 7.12653 8.1627 7.5566 8.1627C7.98667 8.1627 8.33542 7.81395 8.33542 7.38388V6.60196H11.8312V7.38388C11.8312 7.81395 12.18 8.1627 12.6101 8.1627C13.0401 8.1627 13.3889 7.81395 13.3889 7.38388V6.60196H14.7341L15.8146 16.8912Z" fill="#37474F"/>
</svg>
