<svg width="18" height="19" viewBox="0 0 18 19" fill="none" xmlns="http://www.w3.org/2000/svg">
<path fill-rule="evenodd" clip-rule="evenodd" d="M16.2037 12.439L13.6637 12.149C13.0537 12.079 12.4537 12.289 12.0237 12.719L10.1837 14.559C7.35367 13.119 5.03367 10.809 3.59367 7.96897L5.44367 6.11896C5.87367 5.68896 6.08367 5.08896 6.01367 4.47896L5.72367 1.95896C5.60367 0.948965 4.75367 0.188965 3.73367 0.188965H2.00367C0.873674 0.188965 -0.0663265 1.12896 0.00367348 2.25896C0.533673 10.799 7.36367 17.619 15.8937 18.149C17.0237 18.219 17.9637 17.279 17.9637 16.149V14.419C17.9737 13.409 17.2137 12.559 16.2037 12.439ZM3.54 2.18896C3.6 3.07896 3.75 3.94896 3.99 4.77896L2.79 5.97896C2.38 4.77896 2.12 3.50897 2.03 2.18896H3.54ZM16 14.659C15.12 14.599 14.25 14.449 13.4 14.209L12.2 15.399C13.41 15.799 14.68 16.059 16 16.149V14.659Z" fill="#0E0E0E"/>
</svg>
