<svg width="24" height="25" viewBox="0 0 24 25" fill="none" xmlns="http://www.w3.org/2000/svg">
<path d="M15.8746 9.43897L11.9946 13.319L8.11461 9.43897C7.92778 9.25172 7.67413 9.14648 7.40961 9.14648C7.14509 9.14648 6.89144 9.25172 6.70461 9.43897C6.31461 9.82897 6.31461 10.459 6.70461 10.849L11.2946 15.439C11.6846 15.829 12.3146 15.829 12.7046 15.439L17.2946 10.849C17.6846 10.459 17.6846 9.82897 17.2946 9.43897C16.9046 9.05897 16.2646 9.04897 15.8746 9.43897Z" fill="#0D0D0D"/>
<mask id="mask0" mask-type="alpha" maskUnits="userSpaceOnUse" x="6" y="9" width="12" height="7">
<path d="M15.8746 9.43897L11.9946 13.319L8.11461 9.43897C7.92778 9.25172 7.67413 9.14648 7.40961 9.14648C7.14509 9.14648 6.89144 9.25172 6.70461 9.43897C6.31461 9.82897 6.31461 10.459 6.70461 10.849L11.2946 15.439C11.6846 15.829 12.3146 15.829 12.7046 15.439L17.2946 10.849C17.6846 10.459 17.6846 9.82897 17.2946 9.43897C16.9046 9.05897 16.2646 9.04897 15.8746 9.43897Z" fill="white"/>
</mask>
<g mask="url(#mask0)">
</g>
</svg>
