<svg width="23" height="24" viewBox="0 0 23 24" fill="none" xmlns="http://www.w3.org/2000/svg">
<mask id="path-1-outside-1" maskUnits="userSpaceOnUse" x="0" y="0.188965" width="23" height="24" fill="black">
<rect fill="white" y="0.188965" width="23" height="24"/>
<path fill-rule="evenodd" clip-rule="evenodd" d="M21.2826 12.0057C21.1932 12.1885 21.1932 12.3982 21.2826 12.581L22.1109 14.2755C22.572 15.219 22.2066 16.3436 21.279 16.8357L19.6129 17.7197C19.4332 17.8151 19.31 17.9847 19.2748 18.1851L18.9489 20.0428C18.7675 21.0771 17.8112 21.7722 16.7711 21.6251L14.9036 21.3609C14.7022 21.3327 14.5028 21.3973 14.3565 21.5387L13.001 22.8501C12.6237 23.2151 12.1392 23.3977 11.655 23.3977C11.1707 23.3978 10.6865 23.2152 10.309 22.8501L8.9535 21.5387C8.80724 21.3973 8.6078 21.3324 8.4064 21.3609L6.53894 21.6251C6.44572 21.6383 6.35298 21.6447 6.26159 21.6447C5.33365 21.6448 4.52625 20.9844 4.36107 20.0428L4.03523 18.1851C4.00005 17.9847 3.87682 17.8151 3.69707 17.7197L2.031 16.8357C1.10337 16.3435 0.737966 15.219 1.19914 14.2755L2.02745 12.5811C2.1168 12.3983 2.1168 12.1886 2.02745 12.0058L1.19918 10.3114C0.738009 9.36789 1.10341 8.24328 2.03105 7.75113L3.69712 6.86713C3.87682 6.77175 4.00005 6.60211 4.03523 6.40171L4.36107 4.54405C4.54251 3.5097 5.49895 2.81456 6.53889 2.96173L8.40636 3.22589C8.60788 3.25426 8.80719 3.18959 8.95346 3.0481L10.309 1.73662C11.0638 1.00639 12.2462 1.00643 13.001 1.73662L14.3565 3.04797C14.5028 3.18942 14.7021 3.25422 14.9036 3.22576L16.7711 2.9616C17.8107 2.81452 18.7675 3.50957 18.9489 4.54392L19.2748 6.40167C19.3099 6.60202 19.4332 6.77171 19.6129 6.86705L21.279 7.75105C22.2066 8.24323 22.572 9.36776 22.1109 10.3112L21.2826 12.0057ZM19.0126 16.5882L20.6786 15.7042C20.9925 15.5376 21.1161 15.1571 20.9601 14.8379L20.1317 13.1434C19.8677 12.6032 19.8677 11.9834 20.1317 11.4432L20.9601 9.74873C21.1161 9.42952 20.9925 9.04907 20.6786 8.88255L19.0125 7.99855C18.4813 7.71674 18.117 7.21535 18.0131 6.62301L17.6873 4.76526C17.6259 4.41531 17.3021 4.18017 16.9504 4.22992L15.083 4.49408C14.4875 4.57836 13.8981 4.38681 13.4659 3.96866L12.1103 2.65732C11.8549 2.41034 11.4549 2.41034 11.1996 2.65732L9.84397 3.96866C9.41173 4.38677 8.8222 4.57836 8.22687 4.49408L6.3594 4.22992C6.00749 4.18021 5.684 4.41531 5.62258 4.76526L5.29674 6.62297C5.19285 7.21531 4.82854 7.71665 4.29735 7.99855L2.63128 8.88255C2.31741 9.04907 2.19379 9.42952 2.34982 9.74873L3.17812 11.4432C3.4422 11.9835 3.4422 12.6032 3.17812 13.1435L2.34982 14.8379C2.19379 15.1571 2.31741 15.5376 2.63128 15.7041L4.29735 16.5881C4.82858 16.8699 5.19285 17.3713 5.29678 17.9637L5.62266 19.8214C5.68408 20.1714 6.00788 20.4065 6.35949 20.3568L8.22695 20.0926C8.31917 20.0795 8.41126 20.0731 8.50261 20.0731C9.00117 20.0731 9.47874 20.2646 9.84405 20.618L11.1996 21.9293C11.455 22.1763 11.855 22.1763 12.1104 21.9293L13.4659 20.618C13.8982 20.1999 14.4875 20.0083 15.083 20.0926L16.9505 20.3568C17.3024 20.4065 17.626 20.1714 17.6873 19.8214L18.0132 17.9637C18.1171 17.3714 18.4814 16.8701 19.0126 16.5882ZM15.4282 7.61397C15.6783 7.36387 16.0839 7.36387 16.3339 7.61397C16.5841 7.86412 16.5841 8.2696 16.3339 8.51975L7.88038 16.9732C7.75537 17.0983 7.59141 17.1608 7.42753 17.1608C7.26366 17.1608 7.09974 17.0983 6.97469 16.9732C6.72458 16.7231 6.72458 16.3176 6.97469 16.0675L15.4282 7.61397ZM9.09296 6.52942C7.7981 6.52942 6.74463 7.58289 6.74463 8.87775C6.74463 10.1726 7.7981 11.2261 9.09296 11.2261C10.3878 11.2261 11.4413 10.1726 11.4413 8.87775C11.4413 7.58289 10.3878 6.52942 9.09296 6.52942ZM9.09296 9.94515C8.50439 9.94515 8.02556 9.46632 8.02556 8.87771C8.02556 8.28914 8.50439 7.81031 9.09296 7.81031C9.68153 7.81031 10.1604 8.28914 10.1604 8.87771C10.1604 9.46632 9.68153 9.94515 9.09296 9.94515ZM11.8684 15.7092C11.8684 14.4143 12.9219 13.3608 14.2167 13.3608C15.5116 13.3608 16.5651 14.4143 16.5651 15.7092C16.5651 17.004 15.5116 18.0575 14.2167 18.0575C12.9219 18.0575 11.8684 17.004 11.8684 15.7092ZM13.1493 15.7092C13.1493 16.2977 13.6282 16.7766 14.2167 16.7766C14.8053 16.7766 15.2841 16.2977 15.2841 15.7092C15.2841 15.1206 14.8053 14.6418 14.2167 14.6418C13.6281 14.6418 13.1493 15.1206 13.1493 15.7092Z"/>
</mask>
<path fill-rule="evenodd" clip-rule="evenodd" d="M21.2826 12.0057C21.1932 12.1885 21.1932 12.3982 21.2826 12.581L22.1109 14.2755C22.572 15.219 22.2066 16.3436 21.279 16.8357L19.6129 17.7197C19.4332 17.8151 19.31 17.9847 19.2748 18.1851L18.9489 20.0428C18.7675 21.0771 17.8112 21.7722 16.7711 21.6251L14.9036 21.3609C14.7022 21.3327 14.5028 21.3973 14.3565 21.5387L13.001 22.8501C12.6237 23.2151 12.1392 23.3977 11.655 23.3977C11.1707 23.3978 10.6865 23.2152 10.309 22.8501L8.9535 21.5387C8.80724 21.3973 8.6078 21.3324 8.4064 21.3609L6.53894 21.6251C6.44572 21.6383 6.35298 21.6447 6.26159 21.6447C5.33365 21.6448 4.52625 20.9844 4.36107 20.0428L4.03523 18.1851C4.00005 17.9847 3.87682 17.8151 3.69707 17.7197L2.031 16.8357C1.10337 16.3435 0.737966 15.219 1.19914 14.2755L2.02745 12.5811C2.1168 12.3983 2.1168 12.1886 2.02745 12.0058L1.19918 10.3114C0.738009 9.36789 1.10341 8.24328 2.03105 7.75113L3.69712 6.86713C3.87682 6.77175 4.00005 6.60211 4.03523 6.40171L4.36107 4.54405C4.54251 3.5097 5.49895 2.81456 6.53889 2.96173L8.40636 3.22589C8.60788 3.25426 8.80719 3.18959 8.95346 3.0481L10.309 1.73662C11.0638 1.00639 12.2462 1.00643 13.001 1.73662L14.3565 3.04797C14.5028 3.18942 14.7021 3.25422 14.9036 3.22576L16.7711 2.9616C17.8107 2.81452 18.7675 3.50957 18.9489 4.54392L19.2748 6.40167C19.3099 6.60202 19.4332 6.77171 19.6129 6.86705L21.279 7.75105C22.2066 8.24323 22.572 9.36776 22.1109 10.3112L21.2826 12.0057ZM19.0126 16.5882L20.6786 15.7042C20.9925 15.5376 21.1161 15.1571 20.9601 14.8379L20.1317 13.1434C19.8677 12.6032 19.8677 11.9834 20.1317 11.4432L20.9601 9.74873C21.1161 9.42952 20.9925 9.04907 20.6786 8.88255L19.0125 7.99855C18.4813 7.71674 18.117 7.21535 18.0131 6.62301L17.6873 4.76526C17.6259 4.41531 17.3021 4.18017 16.9504 4.22992L15.083 4.49408C14.4875 4.57836 13.8981 4.38681 13.4659 3.96866L12.1103 2.65732C11.8549 2.41034 11.4549 2.41034 11.1996 2.65732L9.84397 3.96866C9.41173 4.38677 8.8222 4.57836 8.22687 4.49408L6.3594 4.22992C6.00749 4.18021 5.684 4.41531 5.62258 4.76526L5.29674 6.62297C5.19285 7.21531 4.82854 7.71665 4.29735 7.99855L2.63128 8.88255C2.31741 9.04907 2.19379 9.42952 2.34982 9.74873L3.17812 11.4432C3.4422 11.9835 3.4422 12.6032 3.17812 13.1435L2.34982 14.8379C2.19379 15.1571 2.31741 15.5376 2.63128 15.7041L4.29735 16.5881C4.82858 16.8699 5.19285 17.3713 5.29678 17.9637L5.62266 19.8214C5.68408 20.1714 6.00788 20.4065 6.35949 20.3568L8.22695 20.0926C8.31917 20.0795 8.41126 20.0731 8.50261 20.0731C9.00117 20.0731 9.47874 20.2646 9.84405 20.618L11.1996 21.9293C11.455 22.1763 11.855 22.1763 12.1104 21.9293L13.4659 20.618C13.8982 20.1999 14.4875 20.0083 15.083 20.0926L16.9505 20.3568C17.3024 20.4065 17.626 20.1714 17.6873 19.8214L18.0132 17.9637C18.1171 17.3714 18.4814 16.8701 19.0126 16.5882ZM15.4282 7.61397C15.6783 7.36387 16.0839 7.36387 16.3339 7.61397C16.5841 7.86412 16.5841 8.2696 16.3339 8.51975L7.88038 16.9732C7.75537 17.0983 7.59141 17.1608 7.42753 17.1608C7.26366 17.1608 7.09974 17.0983 6.97469 16.9732C6.72458 16.7231 6.72458 16.3176 6.97469 16.0675L15.4282 7.61397ZM9.09296 6.52942C7.7981 6.52942 6.74463 7.58289 6.74463 8.87775C6.74463 10.1726 7.7981 11.2261 9.09296 11.2261C10.3878 11.2261 11.4413 10.1726 11.4413 8.87775C11.4413 7.58289 10.3878 6.52942 9.09296 6.52942ZM9.09296 9.94515C8.50439 9.94515 8.02556 9.46632 8.02556 8.87771C8.02556 8.28914 8.50439 7.81031 9.09296 7.81031C9.68153 7.81031 10.1604 8.28914 10.1604 8.87771C10.1604 9.46632 9.68153 9.94515 9.09296 9.94515ZM11.8684 15.7092C11.8684 14.4143 12.9219 13.3608 14.2167 13.3608C15.5116 13.3608 16.5651 14.4143 16.5651 15.7092C16.5651 17.004 15.5116 18.0575 14.2167 18.0575C12.9219 18.0575 11.8684 17.004 11.8684 15.7092ZM13.1493 15.7092C13.1493 16.2977 13.6282 16.7766 14.2167 16.7766C14.8053 16.7766 15.2841 16.2977 15.2841 15.7092C15.2841 15.1206 14.8053 14.6418 14.2167 14.6418C13.6281 14.6418 13.1493 15.1206 13.1493 15.7092Z" fill="#0E0E0E"/>
<path d="M21.2826 12.581L21.1029 12.6688L21.1029 12.6688L21.2826 12.581ZM21.2826 12.0057L21.4622 12.0935L21.4622 12.0935L21.2826 12.0057ZM22.1109 14.2755L22.2905 14.1877L22.2905 14.1877L22.1109 14.2755ZM21.279 16.8357L21.1853 16.659L21.1853 16.659L21.279 16.8357ZM19.6129 17.7197L19.5192 17.543L19.5192 17.5431L19.6129 17.7197ZM19.2748 18.1851L19.0778 18.1506L19.0778 18.1506L19.2748 18.1851ZM18.9489 20.0428L18.7519 20.0082L18.7519 20.0082L18.9489 20.0428ZM16.7711 21.6251L16.7991 21.4271H16.7991L16.7711 21.6251ZM14.9036 21.3609L14.9317 21.1629L14.9314 21.1629L14.9036 21.3609ZM14.3565 21.5387L14.2175 21.395L14.2175 21.395L14.3565 21.5387ZM13.001 22.8501L12.8619 22.7063L12.8619 22.7064L13.001 22.8501ZM11.655 23.3977L11.655 23.5977H11.655L11.655 23.3977ZM10.309 22.8501L10.17 22.9938L10.17 22.9938L10.309 22.8501ZM8.9535 21.5387L9.09256 21.395L9.09254 21.395L8.9535 21.5387ZM8.4064 21.3609L8.43441 21.559L8.43451 21.559L8.4064 21.3609ZM6.53894 21.6251L6.51092 21.4271H6.51092L6.53894 21.6251ZM6.26159 21.6447V21.4447H6.26157L6.26159 21.6447ZM4.36107 20.0428L4.16408 20.0774L4.16408 20.0774L4.36107 20.0428ZM4.03523 18.1851L4.23223 18.1505L4.23222 18.1505L4.03523 18.1851ZM3.69707 17.7197L3.60333 17.8964L3.60336 17.8964L3.69707 17.7197ZM2.031 16.8357L2.12474 16.659L2.12474 16.659L2.031 16.8357ZM1.19914 14.2755L1.01946 14.1877L1.01946 14.1877L1.19914 14.2755ZM2.02745 12.5811L1.84777 12.4933L1.84777 12.4933L2.02745 12.5811ZM2.02745 12.0058L2.20713 11.918L2.20713 11.918L2.02745 12.0058ZM1.19918 10.3114L1.0195 10.3992L1.0195 10.3992L1.19918 10.3114ZM2.03105 7.75113L2.12478 7.92781L2.12479 7.92781L2.03105 7.75113ZM3.69712 6.86713L3.79086 7.0438L3.79088 7.04379L3.69712 6.86713ZM4.03523 6.40171L4.23222 6.43629L4.23223 6.43626L4.03523 6.40171ZM4.36107 4.54405L4.16408 4.50949L4.16408 4.50949L4.36107 4.54405ZM6.53889 2.96173L6.51087 3.15976L6.51088 3.15976L6.53889 2.96173ZM8.40636 3.22589L8.37835 3.42392L8.37848 3.42394L8.40636 3.22589ZM8.95346 3.0481L9.09252 3.19184L9.09252 3.19184L8.95346 3.0481ZM10.309 1.73662L10.4481 1.88037L10.4481 1.88036L10.309 1.73662ZM13.001 1.73662L12.8619 1.88037L12.8619 1.88037L13.001 1.73662ZM14.3565 3.04797L14.2175 3.19171L14.2175 3.19171L14.3565 3.04797ZM14.9036 3.22576L14.9316 3.4238L14.9317 3.42379L14.9036 3.22576ZM16.7711 2.9616L16.7991 3.15963L16.7991 3.15963L16.7711 2.9616ZM18.9489 4.54392L19.1459 4.50936V4.50936L18.9489 4.54392ZM19.2748 6.40167L19.0778 6.43622L19.0778 6.43625L19.2748 6.40167ZM19.6129 6.86705L19.7067 6.69037L19.7066 6.69036L19.6129 6.86705ZM21.279 7.75105L21.1853 7.92772L21.1853 7.92772L21.279 7.75105ZM22.1109 10.3112L22.2905 10.3991L22.2905 10.3991L22.1109 10.3112ZM20.6786 15.7042L20.5849 15.5275L20.5849 15.5275L20.6786 15.7042ZM19.0126 16.5882L18.9188 16.4115L18.9188 16.4115L19.0126 16.5882ZM20.9601 14.8379L21.1397 14.75L21.1397 14.75L20.9601 14.8379ZM20.1317 13.1434L19.9521 13.2312L19.9521 13.2313L20.1317 13.1434ZM20.1317 11.4432L19.9521 11.3553L19.9521 11.3553L20.1317 11.4432ZM20.9601 9.74873L21.1397 9.83656L21.1397 9.83656L20.9601 9.74873ZM20.6786 8.88255L20.5848 9.05922L20.5849 9.05923L20.6786 8.88255ZM19.0125 7.99855L19.1063 7.82188L19.1062 7.82187L19.0125 7.99855ZM18.0131 6.62301L17.8161 6.65756L17.8161 6.65758L18.0131 6.62301ZM17.6873 4.76526L17.4903 4.79981V4.79982L17.6873 4.76526ZM16.9504 4.22992L16.9784 4.42795L16.9784 4.42795L16.9504 4.22992ZM15.083 4.49408L15.0549 4.29605L15.0549 4.29605L15.083 4.49408ZM13.4659 3.96866L13.3268 4.11241V4.11241L13.4659 3.96866ZM12.1103 2.65732L12.2494 2.51358L12.2493 2.51355L12.1103 2.65732ZM11.1996 2.65732L11.3386 2.80107L11.3386 2.80107L11.1996 2.65732ZM9.84397 3.96866L9.98302 4.11242L9.98302 4.11241L9.84397 3.96866ZM8.22687 4.49408L8.2549 4.29605L8.25488 4.29605L8.22687 4.49408ZM6.3594 4.22992L6.38741 4.03189L6.38738 4.03188L6.3594 4.22992ZM5.62258 4.76526L5.42559 4.73069L5.42558 4.73071L5.62258 4.76526ZM5.29674 6.62297L5.09974 6.58842L5.09974 6.58842L5.29674 6.62297ZM4.29735 7.99855L4.39109 8.17522L4.39111 8.17521L4.29735 7.99855ZM2.63128 8.88255L2.72502 9.05923L2.72502 9.05922L2.63128 8.88255ZM2.34982 9.74873L2.17013 9.83656L2.17014 9.83656L2.34982 9.74873ZM3.17812 11.4432L3.35781 11.3554L3.35781 11.3554L3.17812 11.4432ZM3.17812 13.1435L3.35781 13.2313L3.35781 13.2313L3.17812 13.1435ZM2.34982 14.8379L2.17014 14.7501L2.17013 14.7501L2.34982 14.8379ZM2.63128 15.7041L2.72502 15.5274L2.72502 15.5274L2.63128 15.7041ZM4.29735 16.5881L4.20361 16.7648L4.20363 16.7648L4.29735 16.5881ZM5.29678 17.9637L5.49377 17.9291L5.49377 17.9291L5.29678 17.9637ZM5.62266 19.8214L5.42567 19.856L5.42567 19.856L5.62266 19.8214ZM6.35949 20.3568L6.38749 20.5548L6.3875 20.5548L6.35949 20.3568ZM8.22695 20.0926L8.25497 20.2906L8.25499 20.2906L8.22695 20.0926ZM9.84405 20.618L9.98311 20.4743L9.98311 20.4743L9.84405 20.618ZM11.1996 21.9293L11.0605 22.0731L11.0606 22.0731L11.1996 21.9293ZM12.1104 21.9293L11.9713 21.7856L11.9713 21.7856L12.1104 21.9293ZM13.4659 20.618L13.3269 20.4743L13.3269 20.4743L13.4659 20.618ZM15.083 20.0926L15.055 20.2907L15.055 20.2907L15.083 20.0926ZM16.9505 20.3568L16.9225 20.5548L16.9226 20.5548L16.9505 20.3568ZM17.6873 19.8214L17.4903 19.7869V19.7869L17.6873 19.8214ZM18.0132 17.9637L18.2102 17.9983V17.9983L18.0132 17.9637ZM16.3339 7.61397L16.1925 7.75538L16.1925 7.75539L16.3339 7.61397ZM15.4282 7.61397L15.2868 7.47255V7.47255L15.4282 7.61397ZM16.3339 8.51975L16.1925 8.37831L16.1925 8.37833L16.3339 8.51975ZM7.88038 16.9732L7.73896 16.8318L7.73891 16.8319L7.88038 16.9732ZM6.97469 16.9732L7.11611 16.8318H7.11611L6.97469 16.9732ZM6.97469 16.0675L7.11611 16.2089H7.11611L6.97469 16.0675ZM10.1604 8.87771L10.3604 8.87772V8.87771H10.1604ZM21.4622 12.4932C21.4 12.3658 21.4 12.2209 21.4622 12.0935L21.1029 11.9179C20.9864 12.1561 20.9864 12.4306 21.1029 12.6688L21.4622 12.4932ZM22.2905 14.1877L21.4622 12.4932L21.1029 12.6688L21.9312 14.3633L22.2905 14.1877ZM21.3727 17.0124C22.3957 16.4697 22.7991 15.228 22.2905 14.1877L21.9312 14.3633C22.345 15.2099 22.0176 16.2175 21.1853 16.659L21.3727 17.0124ZM19.7067 17.8964L21.3727 17.0124L21.1853 16.659L19.5192 17.543L19.7067 17.8964ZM19.4718 18.2197C19.4963 18.08 19.5815 17.9628 19.7067 17.8964L19.5192 17.5431C19.285 17.6674 19.1237 17.8894 19.0778 18.1506L19.4718 18.2197ZM19.1459 20.0774L19.4718 18.2197L19.0778 18.1506L18.7519 20.0082L19.1459 20.0774ZM16.7431 21.8231C17.89 21.9854 18.9458 21.2179 19.1459 20.0774L18.7519 20.0082C18.5891 20.9364 17.7323 21.5591 16.7991 21.4271L16.7431 21.8231ZM14.8756 21.559L16.7431 21.8231L16.7991 21.4271L14.9317 21.1629L14.8756 21.559ZM14.4956 21.6825C14.5974 21.584 14.7352 21.5393 14.8758 21.559L14.9314 21.1629C14.6691 21.1261 14.4082 21.2106 14.2175 21.395L14.4956 21.6825ZM13.14 22.9938L14.4956 21.6825L14.2175 21.395L12.8619 22.7063L13.14 22.9938ZM11.655 23.5977C12.1897 23.5977 12.7244 23.3959 13.14 22.9938L12.8619 22.7064C12.5229 23.0343 12.0887 23.1977 11.655 23.1977L11.655 23.5977ZM10.17 22.9938C10.5857 23.396 11.1202 23.5978 11.655 23.5977L11.655 23.1977C11.2212 23.1978 10.7873 23.0345 10.4481 22.7063L10.17 22.9938ZM8.81444 21.6825L10.17 22.9938L10.4481 22.7063L9.09256 21.395L8.81444 21.6825ZM8.43451 21.559C8.57465 21.5391 8.71245 21.5839 8.81447 21.6825L9.09254 21.395C8.90202 21.2107 8.64094 21.1257 8.3783 21.1629L8.43451 21.559ZM6.56695 21.8231L8.43441 21.559L8.37839 21.1629L6.51092 21.4271L6.56695 21.8231ZM6.26159 21.8447C6.36234 21.8447 6.46444 21.8376 6.56695 21.8231L6.51092 21.4271C6.427 21.439 6.34363 21.4447 6.26159 21.4447V21.8447ZM4.16408 20.0774C4.34619 21.1156 5.23743 21.8448 6.26161 21.8447L6.26157 21.4447C5.42987 21.4448 4.7063 20.8533 4.55806 20.0083L4.16408 20.0774ZM3.83824 18.2196L4.16408 20.0774L4.55807 20.0083L4.23223 18.1505L3.83824 18.2196ZM3.60336 17.8964C3.72857 17.9628 3.81373 18.08 3.83825 18.2197L4.23222 18.1505C4.18638 17.8894 4.02508 17.6673 3.79079 17.543L3.60336 17.8964ZM1.93726 17.0124L3.60333 17.8964L3.79081 17.543L2.12474 16.659L1.93726 17.0124ZM1.01946 14.1877C0.51091 15.2281 0.914333 16.4696 1.93726 17.0124L2.12474 16.659C1.2924 16.2174 0.965023 15.2099 1.37882 14.3634L1.01946 14.1877ZM1.84777 12.4933L1.01946 14.1877L1.37882 14.3634L2.20713 12.6689L1.84777 12.4933ZM1.84776 12.0936C1.91003 12.221 1.91002 12.3659 1.84777 12.4933L2.20713 12.6689C2.32358 12.4307 2.32357 12.1562 2.20713 11.918L1.84776 12.0936ZM1.0195 10.3992L1.84776 12.0936L2.20713 11.918L1.37886 10.2235L1.0195 10.3992ZM1.93731 7.57446C0.914369 8.11717 0.510956 9.35881 1.0195 10.3992L1.37887 10.2235C0.965063 9.37697 1.29245 8.36939 2.12478 7.92781L1.93731 7.57446ZM3.60338 6.69046L1.93731 7.57446L2.12479 7.92781L3.79086 7.0438L3.60338 6.69046ZM3.83824 6.36713C3.81373 6.5068 3.72857 6.62401 3.60335 6.69048L3.79088 7.04379C4.02507 6.91949 4.18638 6.69741 4.23222 6.43629L3.83824 6.36713ZM4.16408 4.50949L3.83824 6.36716L4.23223 6.43626L4.55807 4.5786L4.16408 4.50949ZM6.56692 2.76371C5.42012 2.60141 4.36416 3.36892 4.16408 4.50949L4.55806 4.5786C4.72087 3.65048 5.57778 3.02771 6.51087 3.15976L6.56692 2.76371ZM8.43437 3.02787L6.5669 2.76371L6.51088 3.15976L8.37835 3.42392L8.43437 3.02787ZM8.8144 2.90435C8.71252 3.0029 8.57484 3.04764 8.43424 3.02785L8.37848 3.42394C8.64093 3.46089 8.90187 3.37627 9.09252 3.19184L8.8144 2.90435ZM10.17 1.59288L8.8144 2.90436L9.09252 3.19184L10.4481 1.88037L10.17 1.59288ZM13.1401 1.59288C12.3077 0.787689 11.0023 0.787628 10.17 1.59289L10.4481 1.88036C11.1253 1.22515 12.1847 1.22518 12.8619 1.88037L13.1401 1.59288ZM14.4956 2.90422L13.1401 1.59288L12.8619 1.88037L14.2175 3.19171L14.4956 2.90422ZM14.8757 3.02773C14.7352 3.04756 14.5975 3.00278 14.4956 2.90422L14.2175 3.19171C14.408 3.37605 14.669 3.46087 14.9316 3.4238L14.8757 3.02773ZM16.7431 2.76358L14.8756 3.02774L14.9317 3.42379L16.7991 3.15963L16.7431 2.76358ZM19.1459 4.50936C18.9458 3.36876 17.8895 2.60138 16.7431 2.76358L16.7991 3.15963C17.7319 3.02766 18.5891 3.65038 18.7519 4.57847L19.1459 4.50936ZM19.4718 6.36711L19.1459 4.50936L18.7519 4.57847L19.0778 6.43622L19.4718 6.36711ZM19.7066 6.69036C19.5814 6.62395 19.4963 6.50672 19.4718 6.36708L19.0778 6.43625C19.1236 6.69732 19.2849 6.91946 19.5192 7.04373L19.7066 6.69036ZM21.3727 7.57438L19.7067 6.69037L19.5192 7.04372L21.1853 7.92772L21.3727 7.57438ZM22.2905 10.3991C22.7991 9.35867 22.3957 8.11712 21.3727 7.57438L21.1853 7.92772C22.0176 8.36935 22.345 9.37684 21.9312 10.2234L22.2905 10.3991ZM21.4622 12.0935L22.2905 10.3991L21.9312 10.2234L21.1029 11.9179L21.4622 12.0935ZM20.5849 15.5275L18.9188 16.4115L19.1063 16.7648L20.7724 15.8808L20.5849 15.5275ZM20.7804 14.9257C20.8891 15.1481 20.8034 15.4115 20.5849 15.5275L20.7724 15.8808C21.1816 15.6637 21.3432 15.1662 21.1397 14.75L20.7804 14.9257ZM19.9521 13.2313L20.7804 14.9257L21.1397 14.75L20.3114 13.0556L19.9521 13.2313ZM19.9521 11.3553C19.6609 11.951 19.6609 12.6356 19.9521 13.2312L20.3114 13.0556C20.0744 12.5708 20.0744 12.0158 20.3114 11.531L19.9521 11.3553ZM20.7804 9.66089L19.9521 11.3553L20.3114 11.531L21.1397 9.83656L20.7804 9.66089ZM20.5849 9.05923C20.8034 9.17519 20.889 9.43861 20.7804 9.6609L21.1397 9.83656C21.3431 9.42043 21.1815 8.92296 20.7723 8.70588L20.5849 9.05923ZM18.9188 8.17522L20.5848 9.05922L20.7723 8.70588L19.1063 7.82188L18.9188 8.17522ZM17.8161 6.65758C17.9307 7.31067 18.3331 7.8645 18.9188 8.17523L19.1062 7.82187C18.6295 7.56898 18.3034 7.12004 18.2101 6.58845L17.8161 6.65758ZM17.4903 4.79982L17.8161 6.65756L18.2101 6.58846L17.8842 4.73071L17.4903 4.79982ZM16.9784 4.42795C17.2233 4.3933 17.4475 4.55614 17.4903 4.79981L17.8842 4.73071C17.8042 4.27447 17.3809 3.96703 16.9224 4.03189L16.9784 4.42795ZM15.111 4.69211L16.9784 4.42795L16.9224 4.03189L15.0549 4.29605L15.111 4.69211ZM13.3268 4.11241C13.8034 4.57344 14.4545 4.78503 15.111 4.6921L15.0549 4.29605C14.5206 4.37168 13.9928 4.20018 13.6049 3.82492L13.3268 4.11241ZM11.9713 2.80107L13.3268 4.11241L13.6049 3.82492L12.2494 2.51358L11.9713 2.80107ZM11.3386 2.80107C11.5164 2.6291 11.7934 2.62907 11.9713 2.80109L12.2493 2.51355C11.9164 2.19161 11.3934 2.19158 11.0605 2.51358L11.3386 2.80107ZM9.98302 4.11241L11.3386 2.80107L11.0605 2.51357L9.70491 3.82492L9.98302 4.11241ZM8.19883 4.6921C8.85528 4.78503 9.50646 4.57339 9.98302 4.11242L9.70492 3.82491C9.317 4.20014 8.78912 4.37168 8.2549 4.29605L8.19883 4.6921ZM6.33139 4.42795L8.19886 4.69211L8.25488 4.29605L6.38741 4.03189L6.33139 4.42795ZM5.81956 4.79984C5.86234 4.55611 6.08632 4.39333 6.33143 4.42795L6.38738 4.03188C5.92867 3.96709 5.50565 4.2745 5.42559 4.73069L5.81956 4.79984ZM5.49373 6.65752L5.81957 4.79982L5.42558 4.73071L5.09974 6.58842L5.49373 6.65752ZM4.39111 8.17521C4.97676 7.86441 5.37918 7.31064 5.49373 6.65752L5.09974 6.58842C5.00652 7.11998 4.68031 7.56889 4.2036 7.82189L4.39111 8.17521ZM2.72502 9.05922L4.39109 8.17522L4.20361 7.82188L2.53754 8.70588L2.72502 9.05922ZM2.5295 9.6609C2.42085 9.43861 2.50645 9.17519 2.72502 9.05923L2.53755 8.70588C2.12838 8.92296 1.96674 9.42043 2.17013 9.83656L2.5295 9.6609ZM3.35781 11.3554L2.5295 9.66089L2.17014 9.83656L2.99844 11.531L3.35781 11.3554ZM3.35781 13.2313C3.64897 12.6356 3.64897 11.9511 3.35781 11.3554L2.99844 11.531C3.23543 12.0159 3.23543 12.5708 2.99844 13.0556L3.35781 13.2313ZM2.5295 14.9258L3.35781 13.2313L2.99844 13.0556L2.17014 14.7501L2.5295 14.9258ZM2.72502 15.5274C2.50645 15.4115 2.42085 15.1481 2.5295 14.9258L2.17013 14.7501C1.96674 15.1662 2.12838 15.6637 2.53755 15.8808L2.72502 15.5274ZM4.39109 16.4114L2.72502 15.5274L2.53754 15.8808L4.20361 16.7648L4.39109 16.4114ZM5.49377 17.9291C5.37918 17.276 4.97681 16.7222 4.39108 16.4114L4.20363 16.7648C4.68034 17.0177 5.00652 17.4666 5.09979 17.9982L5.49377 17.9291ZM5.81965 19.7868L5.49377 17.9291L5.09979 17.9982L5.42567 19.856L5.81965 19.7868ZM6.33149 20.1587C6.08666 20.1933 5.86242 20.0305 5.81965 19.7868L5.42567 19.856C5.50575 20.3122 5.92911 20.6196 6.38749 20.5548L6.33149 20.1587ZM8.19894 19.8946L6.33148 20.1587L6.3875 20.5548L8.25497 20.2906L8.19894 19.8946ZM8.50261 19.8731C8.40188 19.8731 8.30043 19.8802 8.19892 19.8946L8.25499 20.2906C8.33792 20.2789 8.42063 20.2731 8.50261 20.2731V19.8731ZM9.98311 20.4743C9.58055 20.0848 9.05314 19.8731 8.50261 19.8731V20.2731C8.9492 20.2731 9.37693 20.4444 9.705 20.7618L9.98311 20.4743ZM11.3387 21.7856L9.98311 20.4743L9.705 20.7618L11.0605 22.0731L11.3387 21.7856ZM11.9713 21.7856C11.7935 21.9576 11.5165 21.9576 11.3386 21.7856L11.0606 22.0731C11.3935 22.3951 11.9166 22.3951 12.2494 22.0731L11.9713 21.7856ZM13.3269 20.4743L11.9713 21.7856L12.2494 22.0731L13.605 20.7618L13.3269 20.4743ZM15.1111 19.8946C14.4544 19.8016 13.8034 20.0133 13.3269 20.4743L13.605 20.7618C13.9929 20.3866 14.5206 20.215 15.055 20.2907L15.1111 19.8946ZM16.9785 20.1588L15.1111 19.8946L15.055 20.2907L16.9225 20.5548L16.9785 20.1588ZM17.4903 19.7869C17.4476 20.0306 17.2236 20.1934 16.9785 20.1588L16.9226 20.5548C17.3812 20.6196 17.8043 20.3123 17.8843 19.856L17.4903 19.7869ZM17.8162 17.9292L17.4903 19.7869L17.8843 19.856L18.2102 17.9983L17.8162 17.9292ZM18.9188 16.4115C18.3332 16.7223 17.9307 17.2761 17.8162 17.9292L18.2102 17.9983C18.3034 17.4667 18.6296 17.0178 19.1063 16.7648L18.9188 16.4115ZM16.4754 7.47256C16.1472 7.14433 15.615 7.14435 15.2868 7.47255L15.5696 7.75539C15.7416 7.58338 16.0205 7.5834 16.1925 7.75538L16.4754 7.47256ZM16.4753 8.66118C16.8036 8.33293 16.8036 7.80081 16.4754 7.47255L16.1925 7.75539C16.3646 7.92743 16.3646 8.20627 16.1925 8.37831L16.4753 8.66118ZM8.0218 17.1147L16.4753 8.66117L16.1925 8.37833L7.73896 16.8318L8.0218 17.1147ZM7.42753 17.3608C7.64225 17.3608 7.85778 17.2788 8.02185 17.1146L7.73891 16.8319C7.65296 16.9179 7.54057 16.9608 7.42753 16.9608V17.3608ZM6.83327 17.1147C6.99732 17.2787 7.21277 17.3608 7.42753 17.3608V16.9608C7.31455 16.9608 7.20216 16.9179 7.11611 16.8318L6.83327 17.1147ZM6.83327 15.9261C6.50506 16.2543 6.50506 16.7865 6.83327 17.1147L7.11611 16.8318C6.94411 16.6598 6.94411 16.3809 7.11611 16.2089L6.83327 15.9261ZM15.2868 7.47255L6.83327 15.9261L7.11611 16.2089L15.5696 7.75539L15.2868 7.47255ZM6.94463 8.87775C6.94463 7.69335 7.90856 6.72942 9.09296 6.72942V6.32942C7.68764 6.32942 6.54463 7.47243 6.54463 8.87775H6.94463ZM9.09296 11.0261C7.90856 11.0261 6.94463 10.0622 6.94463 8.87775H6.54463C6.54463 10.2831 7.68764 11.4261 9.09296 11.4261V11.0261ZM11.2413 8.87775C11.2413 10.0622 10.2774 11.0261 9.09296 11.0261V11.4261C10.4983 11.4261 11.6413 10.2831 11.6413 8.87775H11.2413ZM9.09296 6.72942C10.2774 6.72942 11.2413 7.69335 11.2413 8.87775H11.6413C11.6413 7.47243 10.4983 6.32942 9.09296 6.32942V6.72942ZM7.82556 8.87771C7.82556 9.57677 8.39393 10.1451 9.09296 10.1451V9.74515C8.61485 9.74515 8.22556 9.35587 8.22556 8.87771H7.82556ZM9.09296 7.61031C8.39393 7.61031 7.82556 8.17868 7.82556 8.87771H8.22556C8.22556 8.39959 8.61485 8.01031 9.09296 8.01031V7.61031ZM10.3604 8.87771C10.3604 8.17867 9.79197 7.61031 9.09296 7.61031V8.01031C9.57108 8.01031 9.9604 8.39961 9.9604 8.87771H10.3604ZM9.09296 10.1451C9.79199 10.1451 10.3603 9.57677 10.3604 8.87772L9.9604 8.87769C9.96036 9.35587 9.57106 9.74515 9.09296 9.74515V10.1451ZM14.2167 13.1608C12.8114 13.1608 11.6684 14.3039 11.6684 15.7092H12.0684C12.0684 14.5248 13.0323 13.5608 14.2167 13.5608V13.1608ZM16.7651 15.7092C16.7651 14.3039 15.6221 13.1608 14.2167 13.1608V13.5608C15.4011 13.5608 16.3651 14.5248 16.3651 15.7092H16.7651ZM14.2167 18.2575C15.6221 18.2575 16.7651 17.1145 16.7651 15.7092H16.3651C16.3651 16.8936 15.4011 17.8575 14.2167 17.8575V18.2575ZM11.6684 15.7092C11.6684 17.1145 12.8114 18.2575 14.2167 18.2575V17.8575C13.0323 17.8575 12.0684 16.8936 12.0684 15.7092H11.6684ZM14.2167 16.5766C13.7386 16.5766 13.3493 16.1873 13.3493 15.7092H12.9493C12.9493 16.4082 13.5177 16.9766 14.2167 16.9766V16.5766ZM15.0841 15.7092C15.0841 16.1873 14.6948 16.5766 14.2167 16.5766V16.9766C14.9158 16.9766 15.4841 16.4082 15.4841 15.7092H15.0841ZM14.2167 14.8418C14.6948 14.8418 15.0841 15.2311 15.0841 15.7092H15.4841C15.4841 15.0101 14.9158 14.4418 14.2167 14.4418V14.8418ZM13.3493 15.7092C13.3493 15.2311 13.7386 14.8418 14.2167 14.8418V14.4418C13.5177 14.4418 12.9493 15.0101 12.9493 15.7092H13.3493Z" fill="#0E0E0E" mask="url(#path-1-outside-1)"/>
</svg>
