<svg width="24" height="25" viewBox="0 0 24 25" fill="none" xmlns="http://www.w3.org/2000/svg">
<path fill-rule="evenodd" clip-rule="evenodd" d="M12 2.18896C8.13 2.18896 5 5.31896 5 9.18896C5 13.359 9.42 19.109 11.24 21.299C11.64 21.779 12.37 21.779 12.77 21.299C14.58 19.109 19 13.359 19 9.18896C19 5.31896 15.87 2.18896 12 2.18896ZM7 9.18896C7 6.42896 9.24 4.18896 12 4.18896C14.76 4.18896 17 6.42896 17 9.18896C17 12.069 14.12 16.379 12 19.069C9.92 16.399 7 12.039 7 9.18896ZM9.5 9.18896C9.5 10.569 10.62 11.689 12 11.689C13.38 11.689 14.5 10.569 14.5 9.18896C14.5 7.80896 13.38 6.68896 12 6.68896C10.62 6.68896 9.5 7.80896 9.5 9.18896Z" fill="#0E0E0E"/>
<mask id="mask0" mask-type="alpha" maskUnits="userSpaceOnUse" x="5" y="2" width="14" height="20">
<path fill-rule="evenodd" clip-rule="evenodd" d="M12 2.18896C8.13 2.18896 5 5.31896 5 9.18896C5 13.359 9.42 19.109 11.24 21.299C11.64 21.779 12.37 21.779 12.77 21.299C14.58 19.109 19 13.359 19 9.18896C19 5.31896 15.87 2.18896 12 2.18896ZM7 9.18896C7 6.42896 9.24 4.18896 12 4.18896C14.76 4.18896 17 6.42896 17 9.18896C17 12.069 14.12 16.379 12 19.069C9.92 16.399 7 12.039 7 9.18896ZM9.5 9.18896C9.5 10.569 10.62 11.689 12 11.689C13.38 11.689 14.5 10.569 14.5 9.18896C14.5 7.80896 13.38 6.68896 12 6.68896C10.62 6.68896 9.5 7.80896 9.5 9.18896Z" fill="white"/>
</mask>
<g mask="url(#mask0)">
</g>
</svg>
