<svg width="20" height="22" viewBox="0 0 20 22" fill="none" xmlns="http://www.w3.org/2000/svg">
<path d="M6.71 6.64779L9 4.2741V14.1713C9 14.445 9.10536 14.7075 9.29289 14.9011C9.48043 15.0946 9.73478 15.2034 10 15.2034C10.2652 15.2034 10.5196 15.0946 10.7071 14.9011C10.8946 14.7075 11 14.445 11 14.1713V4.2741L13.29 6.64779C13.383 6.74452 13.4936 6.8213 13.6154 6.87369C13.7373 6.92609 13.868 6.95306 14 6.95306C14.132 6.95306 14.2627 6.92609 14.3846 6.87369C14.5064 6.8213 14.617 6.74452 14.71 6.64779C14.8037 6.55185 14.8781 6.4377 14.9289 6.31194C14.9797 6.18618 15.0058 6.05128 15.0058 5.91504C15.0058 5.7788 14.9797 5.64391 14.9289 5.51814C14.8781 5.39238 14.8037 5.27824 14.71 5.1823L10.71 1.05415C10.6149 0.960197 10.5028 0.886545 10.38 0.837426C10.1365 0.734204 9.86346 0.734204 9.62 0.837426C9.49725 0.886545 9.3851 0.960197 9.29 1.05415L5.29 5.1823C5.19676 5.27852 5.1228 5.39276 5.07234 5.51848C5.02188 5.64421 4.99591 5.77896 4.99591 5.91504C4.99591 6.05113 5.02188 6.18588 5.07234 6.3116C5.1228 6.43733 5.19676 6.55156 5.29 6.64779C5.38324 6.74401 5.49393 6.82034 5.61575 6.87242C5.73757 6.9245 5.86814 6.9513 6 6.9513C6.13186 6.9513 6.26243 6.9245 6.38425 6.87242C6.50607 6.82034 6.61676 6.74401 6.71 6.64779ZM19 13.1393C18.7348 13.1393 18.4804 13.248 18.2929 13.4416C18.1054 13.6351 18 13.8976 18 14.1713V18.2995C18 18.5732 17.8946 18.8357 17.7071 19.0292C17.5196 19.2228 17.2652 19.3315 17 19.3315H3C2.73478 19.3315 2.48043 19.2228 2.29289 19.0292C2.10536 18.8357 2 18.5732 2 18.2995V14.1713C2 13.8976 1.89464 13.6351 1.70711 13.4416C1.51957 13.248 1.26522 13.1393 1 13.1393C0.734784 13.1393 0.48043 13.248 0.292893 13.4416C0.105357 13.6351 0 13.8976 0 14.1713V18.2995C0 19.1206 0.316071 19.9081 0.87868 20.4887C1.44129 21.0694 2.20435 21.3956 3 21.3956H17C17.7956 21.3956 18.5587 21.0694 19.1213 20.4887C19.6839 19.9081 20 19.1206 20 18.2995V14.1713C20 13.8976 19.8946 13.6351 19.7071 13.4416C19.5196 13.248 19.2652 13.1393 19 13.1393Z" fill="black"/>
</svg>
