<svg
width="22"
height="28"
viewBox="0 0 22 28"
fill="none"
xmlns="http://www.w3.org/2000/svg"
>
<path
  fillRule="evenodd"
  clipRule="evenodd"
  d="M20.9694 20.8923L19.2053 19.1282V12.2906C19.2053 8.09231 16.9626 4.57778 13.0514 3.64786V2.71795C13.0514 1.5829 12.1352 0.666664 11.0002 0.666664C9.86512 0.666664 8.94888 1.5829 8.94888 2.71795V3.64786C5.02409 4.57778 2.79503 8.07863 2.79503 12.2906V19.1282L1.03093 20.8923C0.169389 21.7538 0.771098 23.2308 1.98819 23.2308H19.9984C21.2292 23.2308 21.8309 21.7538 20.9694 20.8923ZM5.53007 20.4957V12.2906C5.53007 8.89914 7.59503 6.13675 11.0002 6.13675C14.4053 6.13675 16.4702 8.89914 16.4702 12.2906V20.4957H5.53007ZM13.7352 24.5983C13.7352 26.1026 12.5044 27.3333 11.0002 27.3333C9.48221 27.3333 8.26511 26.1026 8.26511 24.5983H13.7352Z"
  fill="#37474F"
/>
</svg>