<svg width="22" height="23" viewBox="0 0 22 23" fill="none" xmlns="http://www.w3.org/2000/svg">
<path d="M20.2826 10.8167C20.1932 10.9995 20.1932 11.2092 20.2826 11.392L21.1109 13.0865C21.572 14.03 21.2066 15.1546 20.279 15.6467L18.6129 16.5307C18.4332 16.6261 18.31 16.7958 18.2748 16.9962L17.9489 18.8538C17.7675 19.8882 16.8112 20.5833 15.7711 20.4361L13.9036 20.172C13.7022 20.1437 13.5028 20.2083 13.3565 20.3498L12.001 21.6611C11.6237 22.0262 11.1392 22.2087 10.655 22.2087C10.1707 22.2088 9.6865 22.0263 9.30904 21.6611L7.9535 20.3498C7.80724 20.2083 7.6078 20.1434 7.4064 20.172L5.53894 20.4361C5.44572 20.4493 5.35298 20.4557 5.26159 20.4557C4.33365 20.4558 3.52625 19.7955 3.36107 18.8539L3.03523 16.9961C3.00005 16.7958 2.87682 16.6261 2.69707 16.5307L1.031 15.6467C0.103365 15.1546 -0.262034 14.03 0.199139 13.0866L1.02745 11.3921C1.1168 11.2093 1.1168 10.9997 1.02745 10.8168L0.199183 9.12239C-0.261991 8.17892 0.103409 7.05431 1.03105 6.56217L2.69712 5.67817C2.87682 5.58278 3.00005 5.41314 3.03523 5.21274L3.36107 3.35508C3.54251 2.32074 4.49895 1.6256 5.53889 1.77277L7.40636 2.03693C7.60788 2.0653 7.8072 2.00062 7.95346 1.85913L9.30904 0.547659C10.0638 -0.182575 11.2462 -0.182531 12.001 0.547659L13.3565 1.859C13.5028 2.00045 13.7021 2.06525 13.9036 2.0368L15.7711 1.77264C16.8107 1.62555 17.7675 2.32061 17.9489 3.35495L18.2748 5.2127C18.3099 5.41305 18.4332 5.58274 18.6129 5.67808L20.279 6.56208C21.2066 7.05427 21.572 8.17879 21.1109 9.12226L20.2826 10.8167Z" fill="#5EC401"/>
<path d="M15.3339 6.42586C15.0839 6.17575 14.6783 6.17575 14.4282 6.42586L5.97469 14.8794C5.72458 15.1295 5.72458 15.535 5.97469 15.7851C6.09974 15.9102 6.26366 15.9727 6.42753 15.9727C6.59141 15.9727 6.75537 15.9102 6.88038 15.7851L15.3339 7.33164C15.5841 7.08149 15.5841 6.67601 15.3339 6.42586Z" fill="white"/>
<path d="M8.09296 5.33984C6.7981 5.33984 5.74463 6.39332 5.74463 7.68817C5.74463 8.98303 6.7981 10.0365 8.09296 10.0365C9.38782 10.0365 10.4413 8.98303 10.4413 7.68817C10.4413 6.39332 9.38782 5.33984 8.09296 5.33984ZM8.09296 8.75557C7.50439 8.75557 7.02556 8.27674 7.02556 7.68813C7.02556 7.09956 7.50439 6.62074 8.09296 6.62074C8.68153 6.62074 9.1604 7.09956 9.1604 7.68813C9.16036 8.27674 8.68153 8.75557 8.09296 8.75557Z" fill="white"/>
<path d="M13.2167 12.1719C11.9219 12.1719 10.8684 13.2253 10.8684 14.5202C10.8684 15.8151 11.9219 16.8685 13.2167 16.8685C14.5116 16.8685 15.5651 15.8151 15.5651 14.5202C15.5651 13.2253 14.5116 12.1719 13.2167 12.1719ZM13.2167 15.5876C12.6282 15.5876 12.1493 15.1088 12.1493 14.5202C12.1493 13.9316 12.6281 13.4528 13.2167 13.4528C13.8053 13.4528 14.2841 13.9316 14.2841 14.5202C14.2841 15.1088 13.8053 15.5876 13.2167 15.5876Z" fill="white"/>
</svg>
