 <svg
                      width="25"
                      height="22"
                      viewBox="0 0 25 22"
                      fill="none"
                      xmlns="http://www.w3.org/2000/svg"
                    >
                      <path
                        fillRule="evenodd"
                        clipRule="evenodd"
                        d="M22.5452 2.32386C21.2831 0.955081 19.5484 0.199997 17.6681 0.199997C16.2558 0.199997 14.9573 0.64826 13.8212 1.5269C13.51 1.76755 13.2152 2.03729 12.938 2.33461L12.6667 2.64107C12.3132 2.22054 11.9274 1.84793 11.5124 1.52693C10.3763 0.64826 9.07774 0.199997 7.66548 0.199997C5.78503 0.199997 4.05047 0.955036 2.78843 2.32384C1.54746 3.66994 0.866699 5.50167 0.866699 7.47867C0.866699 9.5117 1.62275 11.3689 3.22218 13.2989L3.61926 13.7643C4.30151 14.5402 5.0667 15.2882 6.2794 16.3659L7.27853 17.2415L11.2968 20.6919L11.4833 20.8548C11.8105 21.1414 12.2309 21.2994 12.6667 21.2994C13.1022 21.2994 13.5227 21.1415 13.8501 20.855L16.1408 18.8825L17.7606 17.4961C19.8345 15.7068 20.8763 14.7293 21.792 13.6753L22.1114 13.2987C23.7107 11.369 24.4667 9.51183 24.4667 7.47867C24.4667 5.50157 23.7861 3.66987 22.5452 2.32386ZM15.2043 3.31538C15.9398 2.74666 16.7646 2.46111 17.6681 2.46111C18.9135 2.46111 20.0525 2.95594 20.8827 3.85644C21.7337 4.7795 22.2058 6.0647 22.2058 7.47867C22.2058 8.97327 21.6489 10.3135 20.3705 11.8561L20.1308 12.1396L19.973 12.32C19.3868 12.9807 18.7111 13.6413 17.6685 14.5721L17.0617 15.1083L12.6654 18.8856L11.6787 18.0332L9.08387 15.8136L8.11546 14.9712C6.74049 13.762 5.94505 12.9922 5.25412 12.1989L4.96302 11.8561C3.68458 10.3136 3.12764 8.97331 3.12764 7.47867C3.12764 6.0647 3.59969 4.7795 4.45067 3.85643C5.28106 2.95588 6.41996 2.46111 7.66548 2.46111C8.56879 2.46111 9.39357 2.74667 10.1291 3.31544C10.6998 3.75677 11.1739 4.33449 11.546 4.95825C11.7831 5.35551 12.2044 5.59483 12.6667 5.59483C13.129 5.59483 13.5503 5.35551 13.7873 4.95836C14.1598 4.33426 14.6338 3.75671 15.2043 3.31538Z"
                        fill="#37474F"
                      />
                    </svg>